<!-- Created with Inkscape (http://www.inkscape.org/) -->
<svg id="svg824" version="1.1" viewBox="0 0 666.7 666.7" xml:space="preserve" xmlns="http://www.w3.org/2000/svg"><defs id="defs828"><clipPath id="clipPath840"><path id="path838" d="m0 500h500v-500h-500z"/></clipPath><clipPath id="clipPath862"><path id="path860" d="m0 500h500v-500h-500z"/></clipPath><radialGradient id="radialGradient984" cx="0" cy="0" r="1" gradientTransform="matrix(12.93 0 0 -12.93 277.5 307.6)" gradientUnits="userSpaceOnUse"><stop id="stop980" style="stop-color:#ffc8af" offset="0"/><stop id="stop982" style="stop-color:#ffbb9c" offset="1"/></radialGradient><radialGradient id="radialGradient1004" cx="0" cy="0" r="1" gradientTransform="matrix(19.92 4.29 4.29 -19.92 270 331)" gradientUnits="userSpaceOnUse"><stop id="stop1000" style="stop-color:#ffc8af" offset="0"/><stop id="stop1002" style="stop-color:#ffbb9c" offset="1"/></radialGradient><clipPath id="clipPath1014"><path id="path1012" d="m0 500h500v-500h-500z"/></clipPath><radialGradient id="radialGradient1080" cx="0" cy="0" r="1" gradientTransform="matrix(8.126 0 0 -8.126 250 112.5)" gradientUnits="userSpaceOnUse"><stop id="stop1076" style="stop-color:#ffc8af" offset="0"/><stop id="stop1078" style="stop-color:#ffbb9c" offset="1"/></radialGradient><clipPath id="clipPath1090"><path id="path1088" d="m0 500h500v-500h-500z"/></clipPath><radialGradient id="radialGradient1112" cx="0" cy="0" r="1" gradientTransform="matrix(7.402 0 0 -7.402 198.5 110.4)" gradientUnits="userSpaceOnUse"><stop id="stop1108" style="stop-color:#ffc8af" offset="0"/><stop id="stop1110" style="stop-color:#ffbb9c" offset="1"/></radialGradient><clipPath id="clipPath1122"><path id="path1120" d="m0 500h500v-500h-500z"/></clipPath><radialGradient id="radialGradient1160" cx="0" cy="0" r="1" gradientTransform="matrix(40.92 -6.57 -6.57 -40.92 243.6 249.3)" gradientUnits="userSpaceOnUse"><stop id="stop1156" style="stop-color:#ffc8af" offset="0"/><stop id="stop1158" style="stop-color:#ffbb9c" offset="1"/></radialGradient><clipPath id="clipPath1170"><path id="path1168" d="m0 500h500v-500h-500z"/></clipPath><clipPath id="clipPath1210"><path id="path1208" d="m0 500h500v-500h-500z"/></clipPath><clipPath id="clipPath1226"><path id="path1224" d="m273.1 285.8h9.997v-25.18h-9.997z"/></clipPath><linearGradient id="linearGradient1306" x2="1" gradientTransform="matrix(.002718 -63.3 -63.3 -.002718 383.9 201.2)" gradientUnits="userSpaceOnUse"><stop id="stop1302" style="stop-color:#606bf1" offset="0"/><stop id="stop1304" style="stop-color:#58479f" offset="1"/></linearGradient><clipPath id="clipPath1316"><path id="path1314" d="m0 500h500v-500h-500z"/></clipPath><linearGradient id="linearGradient1338" x2="1" gradientTransform="matrix(26.72 -57.38 -57.38 -26.72 333.7 196.1)" gradientUnits="userSpaceOnUse"><stop id="stop1334" style="stop-color:#606bf1" offset="0"/><stop id="stop1336" style="stop-color:#58479f" offset="1"/></linearGradient><clipPath id="clipPath1348"><path id="path1346" d="m0 500h500v-500h-500z"/></clipPath><linearGradient id="linearGradient1370" x2="1" gradientTransform="matrix(19.19 -75.95 -75.95 -19.19 354.6 214.9)" gradientUnits="userSpaceOnUse"><stop id="stop1366" style="stop-color:#606bf1" offset="0"/><stop id="stop1368" style="stop-color:#58479f" offset="1"/></linearGradient><clipPath id="clipPath1380"><path id="path1378" d="m0 500h500v-500h-500z"/></clipPath></defs><g id="g830" transform="matrix(1.333 0 0 -1.333 0 666.7)"><g id="g834"><g id="g836" clip-path="url(#clipPath840)" style="fill:#ebf3f6"><g id="g842" transform="translate(465.7 195.4)" style="fill:#ebf3f6"><path id="path844" d="m0 0-15.77-110.7h-400.9l-11.84 84.46c-1.317 9.462 3.915 18.63 12.74 22.3l35.58 14.77v35.39c0 10.43 7.634 19.27 17.95 20.77l8.414 1.232 14.13 47.79c2.635 8.927 10.83 15.04 20.12 15.04h144.6c5.5 0 10.54-2.121 14.29-5.608 3.755-3.5 6.231-8.366 6.633-13.85l68.84-7.268c10.22-1.085 18.15-9.389 18.76-19.64l2.78-47.75 48.64-13.74c10.12-2.853 16.56-12.76 15.08-23.16" style="fill:#ebf3f6"/></g><g id="g846" transform="translate(73.03 172.6)" style="fill:#ebf3f6"><path id="path848" d="m0 0 12.52-87.88h318.2l9.399 67.04c1.045 7.512-3.107 14.79-10.12 17.7l-28.24 11.72v28.09c0 8.276-6.058 15.29-14.25 16.48l-6.679 0.978-11.22 37.93c-2.091 7.085-8.595 11.93-15.97 11.93h-114.7c-4.365 0-8.363-1.684-11.34-4.452-2.981-2.778-4.946-6.64-5.266-11l-54.64-5.768c-8.112-0.862-14.4-7.453-14.89-15.59l-2.207-37.9-38.61-10.91c-8.034-2.266-13.14-10.12-11.97-18.38" style="fill:#ebf3f6"/></g><g id="g850" transform="translate(335.6 117.5)" style="fill:#ebf3f6"><path id="path852" d="m0 0c0 9.472-6.936 17.5-16.31 18.86l-7.643 1.119-12.84 43.41c-2.393 8.109-9.837 13.66-18.28 13.66h-131.3c-4.996 0-9.571-1.927-12.98-5.096-3.413-3.179-5.661-7.599-6.027-12.58l-56.86-6.003 12.26-86.12h251.4l-1.44 0.598z" style="fill:#ebf3f6"/></g></g></g><g id="g856"><g id="g858" clip-path="url(#clipPath862)"><path id="path938" d="m288.3 371.7h-80.33v49.52h80.33z" style="fill:#ff8578"/><g id="g940" transform="translate(239.1 401.3)"><path id="path942" d="m0 0-9.558-4.079 9.558-4.019-1.251-2.888-11.46 5.121v3.543l11.46 5.151z" style="fill:#f9fbfc"/></g><g id="g944" transform="translate(253.2 410.7)"><path id="path946" d="m0 0-6.937-26.65-3.304 0.774 6.967 26.62z" style="fill:#f9fbfc"/></g><g id="g948" transform="translate(269.8 399)"><path id="path950" d="m0 0v-3.543l-11.46-5.121-1.25 2.888 9.527 4.019-9.527 4.079 1.25 2.829z" style="fill:#f9fbfc"/></g><path id="path952" d="m394.9 316.6h-45.75v32.6h45.75z" style="fill:#606bf1"/><g id="g954" transform="translate(368.3 342.1)"><path id="path956" d="m0 0c-1.472 0-1.963-0.397-1.963-1.495v-4.906c0-1.915-0.794-2.499-2.126-2.873 1.332-0.351 2.126-0.935 2.126-2.827v-4.906c0-1.097 0.514-1.495 1.963-1.495v-2.149c-3.715 0-4.767 1.192-4.767 3.668v4.649c0 1.331-0.349 1.845-1.564 1.845v2.453c1.215 0 1.564 0.537 1.564 1.869v4.649c0 2.499 1.052 3.667 4.767 3.667z" style="fill:#f1f2f2"/></g><g id="g958" transform="translate(380.5 340.6)"><path id="path960" d="m0 0v-4.649c0-1.331 0.351-1.869 1.589-1.869v-2.453c-1.238 0-1.589-0.514-1.589-1.845v-4.649c0-2.476-1.051-3.668-4.765-3.668v2.149c1.449 0 1.962 0.398 1.962 1.495v4.906c0 1.892 0.794 2.477 2.126 2.827-1.332 0.374-2.126 0.958-2.126 2.873v4.906c0 1.098-0.49 1.495-1.962 1.495v2.149c3.714 0 4.765-1.167 4.765-3.667" style="fill:#f1f2f2"/></g></g></g><g id="g968"><g id="g970"><g id="g976"><g id="g978"><path id="path986" d="m283.9 321.1-14.51-8.116v-5.992c-1.422 0.16-2.764 0.064-4.01-0.191l0.016-0.08s-2.141-12.65 10.64-12.65c12.17 0 13.72 11.84 13.84 12.97-3.147 0.352-5.447 0.08-5.447 0.08v13.98z" style="fill:url(#radialGradient984)"/></g></g></g></g><g id="g988"><g id="g990"><g id="g996"><g id="g998"><path id="path1006" d="m252.5 339c-1.581-8.368-0.061-24.74 7.841-30.38 2.049-1.466 12.79-0.194 14.54 1.334 2.574 2.254 5.154 4.502 7.734 6.748 0.57 0.497 1.145 0.998 1.591 1.607 0.626 0.852 0.972 1.875 1.277 2.887 1.783 5.924 3.096 12.43 1.701 18.57-0.748 3.299-2.304 5.998-4.36 8.084-3.553 3.604-8.14 5.264-12.68 5.263-8.059-1e-3 -15.96-5.231-17.64-14.11" style="fill:url(#radialGradient1004)"/></g></g></g></g><g id="g1008"><g id="g1010" clip-path="url(#clipPath1014)"><g id="g1016" transform="translate(278.3 330.1)"><path id="path1018" d="m0 0c0.105 1.336 1.479 2.799 2.858 1.932 1.428-0.897 1.092-3.27 0.5-4.577-0.463-1.023-2.015-2.145-3.066-1.192-0.881 0.798 0.487 1.739 0.532 2.468 0.041 0.656-1.271 1.126-0.734 1.828" style="fill:#f7b094"/></g><g id="g1020" transform="translate(278.6 323.9)"><path id="path1022" d="m0 0c1.44-0.433 3.88 0.666 4.497 2.672s0.551 4.296 0.551 4.296 0.725-1.816 0.352-4.738c-0.373-2.921-1.396-5.704-3.689-5.741-2.293-0.036-1.711 3.511-1.711 3.511" style="fill:#f7b094"/></g><g id="g1024" transform="translate(276.8 326)"><path id="path1026" d="m0 0c-0.047-0.023-0.1-0.04-0.161-0.048-0.892-0.125-1.248 0.954-1.38 1.629-0.31 1.577-0.261 3.173-0.315 4.768-0.013 0.4 0.018 0.899-0.146 1.275-0.501 1.147-1.835 1.892-2.243 3.077-0.474 1.378 0.864 2.753 0.333 4.261-0.813 2.311-3.78 2.842-5.926 2.817-3.221-0.038-6.36-0.635-9.538-1.128-3.355-0.521-7.644-1.015-10.6 1.107-3.563 2.557-5.051 9.221-2.392 12.87 1.449 1.99 4.198 3.049 6.606 3.104 2.553 0.059 4.71-1.463 7.052-2.229 1.865-0.61 3.669 1.174 5.412 1.523 2.192 0.437 3.122-1.955 5.061-2.021 1.883-0.063 3.73 1.408 5.561 1.742 3.651 0.667 3.436-3 5.885-4.252 1.522-0.778 3.489-0.308 5.029-1.099 1.17-0.6 1.334-1.656 1.589-2.853 0.221-1.034 0.233-2.228 0.573-3.211 0.307-0.884 1.049-1.442 1.628-2.133 0.632-0.755 1.035-1.636 1.356-2.581 0.711-2.098 0.869-4.361 0.675-6.557-0.326-3.686-1.512-7.315-2.744-10.79-0.798-2.253-1.095-4.598-2.324-6.73-0.33-0.573-1.796-2.247-2.342-1-0.116 0.267-0.098 0.571-0.078 0.862 0.162 2.323 2.325 17.29-3.344 15.49-1.19-0.378-1.988-1.368-2.432-2.498-0.53-1.351-0.567-2.712-0.5-4.14 0.01-0.204 0.015-0.409 7e-3 -0.613-0.01-0.264-0.076-0.532-0.302-0.645" style="fill:#3d3d7a"/></g><g id="g1028" transform="translate(269.3 308.4)"><path id="path1030" d="m0 0c6.446 1.036 10.7 6.128 10.7 6.128s-1.738-8.582-11.09-9.035z" style="fill:#f7b094"/></g><g id="g1032" transform="translate(279.9 191.4)"><path id="path1034" d="m0 0h9.227v-88.52c0-0.898-0.729-1.626-1.626-1.626h-5.975c-0.898 0-1.626 0.728-1.626 1.626z" style="fill:#0a2033"/></g><g id="g1036" transform="translate(259.2 190.2)"><path id="path1038" d="m0 0h50.74v-1.385c0-3.487-2.827-6.314-6.314-6.314h-38.12c-3.486 0-6.313 2.827-6.313 6.314z" style="fill:#30475e"/></g><g id="g1040" transform="translate(279.9 111.8)"><path id="path1042" d="m0 0h9.227v-20.51c0-0.898-0.729-1.626-1.626-1.626h-5.975c-0.898 0-1.626 0.728-1.626 1.626z" style="fill:#0a2033"/></g><g id="g1044" transform="translate(236.7 95.04)"><path id="path1046" d="m0 0c0-2.982 2.418-5.4 5.4-5.4s5.4 2.418 5.4 5.4-2.418 5.399-5.4 5.399-5.4-2.417-5.4-5.399" style="fill:#0a2033"/></g><g id="g1048" transform="translate(321.6 95.04)"><path id="path1050" d="m0 0c0-2.982 2.417-5.4 5.399-5.4 2.983 0 5.401 2.418 5.401 5.4s-2.418 5.399-5.401 5.399c-2.982 0-5.399-2.417-5.399-5.399" style="fill:#0a2033"/></g><path id="path1052" d="m275.3 102.4h18.56v16.22h-18.56z" style="fill:#30475e"/><g id="g1054" transform="translate(236.7 98.61)"><path id="path1056" d="m0 0h95.76v1.882c0 3.177-2.575 5.751-5.752 5.751h-84.26c-3.176 0-5.751-2.574-5.751-5.751z" style="fill:#fbd15b"/></g><path id="path1058" d="m284.5 120.1h-3.2v60.55h3.2z" style="fill:#30475e"/><g id="g1060" transform="translate(320.8 255.6)"><path id="path1062" d="m0 0c-2.214 0.07-4.014-1.763-3.886-3.974 0.634-10.99-1.696-37.8-11.93-46.95-12.52-11.18-47.99-9.662-47.99-9.662s-5.858-7.189 5.859-8.787c11.72-1.597 44.74-0.533 52.72 6.923 7.733 7.218 12.32 26.13 8.864 59.04-0.199 1.887-1.742 3.348-3.639 3.408" style="fill:#fbd15b"/></g></g></g><g id="g1064"><g id="g1066"><g id="g1072"><g id="g1074"><path id="path1082" d="m241.4 114.5 4.234-9.65 12.92 5.672-4.218 9.619z" style="fill:url(#radialGradient1080)"/></g></g></g></g><g id="g1084"><g id="g1086" clip-path="url(#clipPath1090)"><g id="g1092" transform="translate(315.3 227)"><path id="path1094" d="m0 0c-0.799-1.598-58.23-0.032-63.65-0.527 0 0-35.15-16.78-40.2-32.48-0.511-1.582-0.655-3.675-0.495-6.168 1.406-22.11 26.59-75.06 26.59-75.06l3.866 1.693 12.94 5.641 1.838 0.799s-19.97 59.51-15.98 62.71c3.994 3.196 49.26 11.18 64.96 15.43 15.72 4.267 10.13 27.96 10.13 27.96" style="fill:#56548c"/></g></g></g><g id="g1096"><g id="g1098"><g id="g1104"><g id="g1106"><path id="path1114" d="m191.9 103.2h14.11l-1.01 14.45-14.11 0.032z" style="fill:url(#radialGradient1112)"/></g></g></g></g><g id="g1116"><g id="g1118" clip-path="url(#clipPath1122)"><g id="g1124" transform="translate(251.3 227)"><path id="path1126" d="m0 0-0.512-0.224s-58.84-8.26-68.43-24.76c-6.232-10.74 5.829-89.19 5.829-89.19l20.82-0.048s-3.113 65.35-2.075 69c1.167 4.154 3.164 5.656 3.963 6.086-0.16 2.494-0.017 4.586 0.495 6.168 5.049 15.71 40.2 32.48 40.2 32.48-0.111 0.079-0.207 0.255-0.287 0.495" style="fill:#3d3d7a"/></g><g id="g1128" transform="translate(308.2 281.3)"><path id="path1130" d="m0 0-3.946-0.543s-0.959-10.64-3.308-21.28l-49.16-18.66-0.672-3.563c-0.207 0.016-0.415 0.031-0.606 0.048 0.015-0.735 0.015-1.454 0.047-2.125 0.112-4.106 0.383-7.062 0.815-8.244 0.08-0.24 0.176-0.416 0.288-0.495 1.335-1.089 18.72 1.021 37.52-5.881 16.3-5.986 25.44-12.52 25.86-11.65 5.124 10.65-4.204 52.45-6.84 72.39" style="fill:#ff8578"/></g><g id="g1132" transform="translate(303 257)"><path id="path1134" d="m0 0c-1.31-6.295-4.697-18.82-11.34-20.5-8.676-2.205-25.45-2.093-41.17-1.246-0.032 0.671-0.032 1.39-0.047 2.125 0.191-0.017 0.399-0.032 0.606-0.048l0.672 3.563 49.16 18.66c2.349 10.64 3.308 21.28 3.308 21.28s0-0.064 0.015-0.176c0.096-1.646 0.768-14.36-1.198-23.66" style="fill:#f4675d"/></g><g id="g1136" transform="translate(253.8 297)"><path id="path1138" d="m0 0c-0.879-1.598-2.142-18.69-2.828-35.66l-10.05 9.379c4.266 8.26 12.88 26.28 12.88 26.28" style="fill:#f4675d"/></g><g id="g1140" transform="rotate(38.76 -228.3 474.3)"><path id="path1142" d="m0 0c-8.484-1.47-16.28-2.732-16.28-2.732l-0.016-0.415c-9.442 7.541-23.81 28.9-23.81 28.9s4.298 5.161 5.37 6.519c0.159 0.207 23.58-15.91 24.78-15.77 0.304 0.032 16.96 1.5 18.55 4.632l1.437-15.49c-0.16-4.042-9.956-1.827-10.04-5.646-3.069 4.72 0.942 0.175 0 0" style="fill:#f7b094"/></g></g></g><g id="g1144"><g id="g1146"><g id="g1152"><g id="g1154"><path id="path1162" d="m205.7 239.3h25.56l0.208 6.998-6.727-0.671s-2.668 3.659-9.585 3.659c-6.919 0-9.459-9.986-9.459-9.986" style="fill:url(#radialGradient1160)"/></g></g></g></g><g id="g1164" transform="translate(-2.05 -37.69)"><g id="g1166" clip-path="url(#clipPath1170)"><g id="g1172" transform="translate(212.8 281.4)"><path id="path1174" d="m0 0 0.192-0.16c-1.071-1.358-5.369-6.519-5.369-6.519l-2.668 1.886s-2.939-1.79-6.358 0.08c-3.564 1.933-1.359 6.549-1.176 7.096-0.69-0.195-4.96-3.645-5.631-3.278-0.671 0.368-1.166 1.582 3.612 6.295 4.76 4.713 11.25-1.342 11.44-1.342z" style="fill:#f7b094"/></g><g id="g1176" transform="translate(199.2 277.5)"><path id="path1178" d="m0 0s-1.03-1.929 0.801-2.767 5.393-1.443 6.924-1.296c1.53 0.147 2.747 2.289 2.747 2.289l-4.635 4.349h-3.705z" style="fill:#f7b094"/></g><g id="g1180" transform="translate(198.9 276.6)"><path id="path1182" d="m0 0c0.274 0.947 2.906 0.442 4.537 0.403 1.202-0.028 1.86 0.286 2.233 1.201 0.371 0.917-1.374 2.375-1.717 1.917-0.344-0.457 0.629-1.102 0.658-1.709 0.028-0.608-1.717-0.808-3.062-0.808-1.344 0-3.665-0.351-3.665-0.351z" style="fill:#e8987c"/></g></g></g><g id="g1184"><g id="g1186"><g id="g1192"><g id="g1194"><path id="path1202" d="m267.7 252.8c-2.925-0.767-9.987-2.092-17.11-3.339-0.942-0.175-1.885-0.335-2.827-0.511-8.484-1.47-16.28-2.732-16.28-2.732l-0.016-0.415v-0.271l-0.192-6.312v-1.602s8.5 0.436 19.22-0.315c15-1.07 34.35-1.71 40.76 1.31 3.004 1.422 5.401 6.087 7.286 11.84-0.032-0.016-0.064-0.032-0.095-0.048l-25.04 8.867c-1.822-3.403-3.771-5.96-5.703-6.471" style="fill:url(#radialGradient1160)"/></g></g></g></g><g id="g1204"><g id="g1206" clip-path="url(#clipPath1210)"><g id="g1212" transform="translate(273.4 259.3)"><path id="path1214" d="m0 0 25.04-8.868-1.134-3.345-24.78 10.63z" style="fill:#f7b094"/></g><g id="g1216" transform="translate(273.4 259.3)"><path id="path1218" d="m0 0c-1.821-3.403-3.771-5.96-5.703-6.471-2.924-0.767-9.986-2.093-17.11-3.339 0.08 3.818 0.208 7.845 0.368 11.89 0.686 16.97 1.949 34.06 2.828 35.66 1.437 2.668 5.368 8.468 11.57 9.794l0.016-0.08s-2.141-12.65 10.64-12.65c12.18 0 13.72 11.84 13.84 12.97 6.264-0.703 15.87-3.834 17.19-16.42 0.271-2.493 0.654-5.688 1.15-9.315l-3.947-0.543s-1.598-17.74-5.703-30.31c-0.032-0.015-0.065-0.032-0.096-0.048z" style="fill:#ff8578"/></g><g id="g1220"><g id="g1234"><g id="g1232" clip-path="url(#clipPath1226)"><g id="g1230" transform="translate(273.1 261.6)"><path id="path1228" d="m0 0 9.997 24.2-7.364-25.18z" style="fill:#6d4b35"/></g></g></g></g><g id="g1236" transform="translate(289.8 307.1)"><path id="path1238" d="m0 0h-5.447s-7.754-8.513-12.74-8.513-2.297 8.465-2.297 8.465h-2.432c-6.984 0-12.86-5.245-13.65-12.18-0.09-0.795-0.173-1.549-0.244-2.231-0.533-5.15 20.33-8.898 20.33-8.898l10.74 0.601 6.523 12.73 1.3 5.212z" style="fill:#ff8578"/></g><g id="g1240" transform="translate(224.1 93.74)"><path id="path1242" d="m0 0c0.485-2.603 2.29-4.453 4.893-3.968l34.7 6.473c0.878 0.163 1.456 1.008 1.293 1.886l-0.574 3.079s-36.5-6.387-40.33-7.45z" style="fill:#f1f2f2"/></g><g id="g1244" transform="translate(234.4 102.5)"><path id="path1246" d="m0 0c0.361 0.314 0.71 0.626 1.072 0.939 0.696 0.623 1.381 1.23 2.04 1.818 0.348 0.311 0.697 0.623 1.019 0.915 0.634 0.567 1.23 1.099 1.765 1.577 0.385 0.347 0.745 0.675 1.068 0.968 0.593 0.531 1.077 0.965 1.417 1.269 0.294 0.263 0.73 0.276 1.032 0.022 1.427-1.199 6.037-3.942 14.39 1.225 0.395 0.246 0.921 0.118 1.135-0.295l5.051-9.706s-36.5-6.386-40.33-7.45c1.261 0.786 5.919 4.818 10.34 8.718" style="fill:#3d3d7a"/></g><g id="g1248" transform="translate(169.4 94.08)"><path id="path1250" d="m0 0c0.065-2.647 1.551-4.762 4.198-4.696l35.29 0.861c0.893 0.022 1.599 0.763 1.577 1.655l-0.077 3.131s-37.05-0.49-41-0.93z" style="fill:#f1f2f2"/></g><g id="g1252" transform="translate(181 101.1)"><path id="path1254" d="m0 0c0.408 0.253 0.801 0.505 1.209 0.757 0.786 0.505 1.559 0.994 2.303 1.469 0.393 0.252 0.787 0.503 1.152 0.741 0.716 0.46 1.39 0.889 1.994 1.275 0.436 0.282 0.842 0.549 1.207 0.785 0.67 0.431 1.218 0.783 1.602 1.029 0.332 0.213 0.765 0.155 1.023-0.144 1.217-1.411 5.332-4.852 14.4-1.082 0.429 0.179 0.927-0.031 1.074-0.474l3.439-10.38s-37.05-0.491-41-0.93c1.369 0.576 6.611 3.813 11.6 6.959" style="fill:#3d3d7a"/></g><g id="g1256" transform="translate(144.3 237.7)"><path id="path1258" d="m0 0-18.85 50.26h53.66l18.84-50.26z" style="fill:#abb5ba"/></g><g id="g1260" transform="translate(201.3 237.7)"><path id="path1262" d="m0 0h-3.317l-18.85 50.26 3.012-0.134 17.43-45.5z" style="fill:#8495a0"/></g><g id="g1264" transform="translate(200.3 237.7)"><path id="path1266" d="m0 0h35.45l-0.097 3.169h-36.08" style="fill:#8495a0"/></g><path id="path1268" d="m351.3 87.83h-8.536v140.2h8.536z" style="fill:#8495a0"/><path id="path1270" d="m305 87.83h-8.536v140.2h8.536z" style="fill:#abb5ba"/><path id="path1272" d="m156.5 87.83h-8.536v140.2h8.536z" style="fill:#8495a0"/><path id="path1274" d="m110.2 87.83h-8.536v140.2h8.536z" style="fill:#abb5ba"/><g id="g1276" transform="translate(359.8 227.5)"><path id="path1278" d="m0 0h-266.4c-2.291 0-4.149 1.857-4.149 4.148v1.822c0 2.291 1.858 4.148 4.149 4.148h266.4c2.291 0 4.148-1.857 4.148-4.148v-1.822c0-2.291-1.857-4.148-4.148-4.148" style="fill:#141b56"/></g><g id="g1280" transform="translate(134.4 282.6)"><path id="path1282" d="m0 0 0.918-2.448h10.69l-0.918 2.448z" style="fill:#8495a0"/></g><g id="g1284" transform="translate(240.9 270.8)"><path id="path1286" d="m0 0-0.768-1.482 10.82-11.18v3.282z" style="fill:#e8987c"/></g><path id="path1288" d="m461.7 79.77h-431.9v9.862h431.9z" style="fill:#a5b7c6"/></g></g><g id="g1290"><g id="g1292"><g id="g1298"><g id="g1300"><path id="path1308" d="m373 174.1c-0.376-3.221-0.661-6.451-1.013-9.674-0.324-2.985-1.333-6.283-1.363-9.241-0.04-3.733 0.5-10.26 2.756-13.34 1.724-2.355 4.588-4.411 7.555-3.807 11.01 2.246 10.5 16.43 12.21 24.75 0.913 4.434 1.544 9.002 2.657 13.38 0.753 2.965 1.767 6.093 0.929 9.189-0.474 1.747-1.13 3.506-1.858 5.175-1.595 3.658-3.406 6.883-4.199 10.69-10.26-5.795-16.32-15.52-17.68-27.13" style="fill:url(#linearGradient1306)"/></g></g></g></g><g id="g1310"><g id="g1312" clip-path="url(#clipPath1316)"><g id="g1318" transform="translate(379.1 137.8)"><path id="path1320" d="m0 0c0.078 0.698 0.164 1.396 0.257 2.094 1.315 4e-3 2.685 0.752 3.79 1.324 1.916 0.993 3.47 2.417 4.974 3.939 0.082 0.081-0.054 0.212-0.14 0.141-1.501-1.261-3.058-2.482-4.844-3.315-0.996-0.464-2.452-1.223-3.681-1.37 0.117 0.833 0.245 1.665 0.382 2.495 1.37 0.168 2.626 1.068 3.786 1.756 1.972 1.17 3.668 2.684 5.426 4.143 0.021 0.017-4e-3 0.047-0.024 0.031-2.69-1.953-5.686-4.733-9.088-5.342 0.181 1.041 0.371 2.078 0.59 3.108 0.01 0.054 0.023 0.107 0.034 0.161 3.937 0.996 6.601 4.084 9.615 6.58 0.049 0.041-3e-3 0.124-0.055 0.084-2.968-2.306-5.758-4.936-9.428-6.056 0.318 1.475 0.649 2.945 0.982 4.413 3.563 1.314 6.407 3.401 8.898 6.308 0.042 0.049-0.027 0.117-0.073 0.07-2.577-2.682-5.415-4.222-8.682-5.749 0.329 1.454 0.656 2.907 0.966 4.365 1.541 0.757 3.162 1.218 4.585 2.216 1.404 0.982 2.664 2.154 3.568 3.617 0.048 0.077-0.067 0.149-0.119 0.076-1.993-2.866-4.998-3.758-7.903-5.265 0.284 1.359 0.547 2.721 0.784 4.091 3.236 1.782 6.753 3.434 8.587 6.849 0.018 0.034-0.03 0.067-0.05 0.034-1.944-3.138-5.339-4.489-8.422-6.197 0.04 0.244 0.085 0.486 0.123 0.731 0.198 1.271 0.384 2.543 0.566 3.815 1.86 0.745 3.632 1.796 5.306 2.886 1.187 0.774 2.456 1.54 3.233 2.754 0.049 0.076-0.062 0.155-0.115 0.081-1.735-2.487-5.537-3.925-8.345-5.169 0.183 1.285 0.364 2.571 0.546 3.856 3.116 1.885 6.782 2.927 8.699 6.326 0.056 0.1-0.091 0.193-0.155 0.095-1.985-3.103-5.48-4.06-8.458-5.821 0.114 0.796 0.231 1.592 0.351 2.387 3.364 1.237 7.276 4.054 9.051 7.095 0.097 0.168-0.145 0.323-0.254 0.163-1.81-2.669-5.446-5.57-8.699-6.626 0.2 1.289 0.408 2.576 0.637 3.86 0.023 0.035 0.039 0.073 0.05 0.114 1.511 0.445 3.004 1.51 4.308 2.315 1.572 0.97 3.072 2.097 4.05 3.691 0.109 0.176-0.178 0.339-0.28 0.159-1.494-2.667-5.041-4.456-7.976-5.474 0.085 0.469 0.17 0.937 0.263 1.405 0.139 0.699 0.281 1.399 0.424 2.098 1.202 0.83 2.729 1.227 3.936 2.104 1.048 0.762 1.964 1.68 2.864 2.61 0.09 0.092-0.043 0.235-0.138 0.146-1.218-1.144-2.471-2.243-3.953-3.036-0.829-0.444-1.774-0.697-2.577-1.184 0.234 1.143 0.469 2.287 0.692 3.431 0.015 2e-3 0.029 6e-3 0.043 9e-3 0.014-3e-3 0.029-6e-3 0.043-9e-3 0.083-0.016 0.15 0.014 0.197 0.062 1.634 0.412 2.885 1.819 3.984 3.018 0.026 0.029-0.014 0.07-0.042 0.043-1.153-1.065-2.463-2.245-4.007-2.703-6e-3 2e-3 -0.01 6e-3 -0.016 7e-3 -0.04 6e-3 -0.078 0.013-0.117 0.018 0.179 0.932 0.349 1.865 0.504 2.8 0.118 0.021 0.222 0.122 0.194 0.24 0.867 0.581 1.654 1.323 2.392 2.048 0.056 0.055-0.022 0.14-0.081 0.089-0.769-0.662-1.526-1.208-2.391-1.686 0.305 1.931 0.542 3.874 0.651 5.836 0.01 0.181-0.266 0.183-0.281 4e-3 -0.172-1.888-0.446-3.758-0.771-5.619-0.901 1.183-1.905 2.401-2.456 3.755-0.028 0.071-0.14 0.042-0.115-0.034 0.269-0.841 0.734-1.576 1.194-2.324 0.412-0.669 0.741-1.447 1.267-2.042-0.182-0.999-0.378-1.995-0.584-2.99-1.096 0.175-2.102 0.383-3.006 1.177-1.109 0.971-1.738 2.292-1.848 3.757-0.014 0.18-0.298 0.179-0.281-1e-3 0.125-1.362 0.667-2.643 1.599-3.659 0.98-1.068 2.13-1.409 3.451-1.683-0.241-1.149-0.489-2.297-0.741-3.444-0.996 0.597-1.92 1.378-2.818 2.093-1.448 1.154-2.304 2.543-3.56 3.843-0.126 0.129-0.331-0.058-0.207-0.191 1.177-1.252 1.974-2.608 3.314-3.733 0.965-0.81 2.029-1.825 3.181-2.425-0.014-0.061-0.028-0.121-0.04-0.182-0.013-0.011-0.027-0.02-0.038-0.032-0.089-0.086-0.08-0.184-0.026-0.257-0.242-1.098-0.483-2.197-0.716-3.299-0.014-0.068-0.026-0.137-0.041-0.207-2.561 1.173-6.389 3.211-6.729 6.183-0.032 0.282-0.454 0.204-0.389-0.085 0.758-3.364 4.454-4.854 7.001-6.688-0.251-1.246-0.481-2.494-0.692-3.746-1.656 0.57-3.229 1.274-4.617 2.378-1.264 1.005-3.051 2.217-3.621 3.774-0.017 0.049-0.089 0.016-0.073-0.031 0.527-1.548 2.13-2.612 3.297-3.667 1.481-1.34 2.995-2.477 4.899-3.013-0.014-0.055-0.018-0.111-4e-3 -0.167-0.131-0.794-0.257-1.588-0.378-2.384-3.112 0.239-7.465 2.602-9.055 4.955-7e-3 0.011-0.022-1e-3 -0.016-0.012 1.084-1.795 2.724-2.845 4.573-3.755 1.38-0.681 2.872-1.486 4.433-1.602-0.222-1.472-0.439-2.945-0.658-4.418-1.351 0.503-2.78 0.744-4.116 1.278-1.986 0.795-3.502 2.223-4.671 3.978-0.07 0.106-0.247 0.017-0.178-0.094 2.154-3.424 5.253-4.429 8.883-5.711-0.182-1.208-0.371-2.415-0.57-3.621-2.971 0.569-6.813 2.383-8.316 4.963-0.11 0.189-0.412 0.032-0.302-0.159 0.95-1.653 2.585-2.699 4.254-3.542 1.203-0.607 2.858-1.613 4.289-1.721-6e-3 -0.039-0.012-0.079-0.019-0.118-0.294-1.735-0.637-3.462-1.007-5.182-3.318 0.834-5.464 3.292-7.876 5.593-0.167 0.16-0.43-0.084-0.263-0.247 2.457-2.419 4.616-4.956 8.03-5.851-0.307-1.399-0.632-2.795-0.97-4.188-2.826 0.79-5.624 2.796-7.452 5.1-0.13 0.164-0.358-0.058-0.235-0.22 1.901-2.5 4.64-4.387 7.556-5.42-0.366-1.495-0.746-2.986-1.13-4.477-2.903 0.442-5.14 2.26-6.928 4.558-0.042 0.053-0.135-0.017-0.096-0.072 1.589-2.211 3.992-4.764 6.884-5.032-0.122-0.475-0.246-0.951-0.369-1.426-0.074-0.286-0.151-0.577-0.23-0.871-2.189 0.644-4.222 1.43-6.028 2.906-0.051 0.042-0.109-0.037-0.062-0.08 1.718-1.546 3.774-2.588 5.971-3.264-0.244-0.895-0.501-1.815-0.756-2.753-0.543 0.253-1.069 0.53-1.662 0.708-1.089 0.326-1.795 1.017-2.742 1.586-0.088 0.053-0.186-0.07-0.098-0.127 0.832-0.543 1.417-1.242 2.366-1.599 0.704-0.266 1.366-0.603 2.046-0.905-0.998-3.719-1.881-7.674-1.402-11.24 0.106-0.792 1.435-1.002 1.64-0.159 0.63 2.588 0.598 5.353 0.893 7.999" style="fill:#747ded"/></g></g></g><g id="g1322"><g id="g1324"><g id="g1330"><g id="g1332"><path id="path1340" d="m335.3 166.9c1.018-3.079 2.123-6.127 3.166-9.198 0.965-2.841 1.442-6.257 2.663-8.953 1.539-3.4 4.783-9.088 8.129-10.93 2.557-1.408 6.023-2.064 8.456-0.263 9.036 6.685 2.583 19.32 0.624 27.59-1.042 4.405-2.4 8.812-3.24 13.26-0.568 3.006-0.969 6.269-3.036 8.721-1.167 1.385-2.506 2.704-3.867 3.909-2.991 2.643-5.993 4.803-8.321 7.923-6.853-9.584-8.245-20.96-4.574-32.06" style="fill:url(#linearGradient1338)"/></g></g></g></g><g id="g1342"><g id="g1344" clip-path="url(#clipPath1348)"><g id="g1350" transform="translate(356.1 136.5)"><path id="path1352" d="m0 0c-0.225 0.666-0.44 1.336-0.652 2.008 1.192 0.557 2.118 1.814 2.878 2.8 1.318 1.709 2.125 3.655 2.847 5.671 0.038 0.107-0.139 0.168-0.187 0.067-0.828-1.776-1.724-3.54-2.992-5.05-0.707-0.841-1.707-2.142-2.758-2.795-0.247 0.805-0.482 1.612-0.707 2.423 1.171 0.73 1.929 2.076 2.69 3.19 1.294 1.894 2.194 3.982 3.171 6.045 0.012 0.024-0.023 0.042-0.035 0.019-1.614-2.905-3.157-6.691-5.984-8.678-0.276 1.019-0.541 2.04-0.778 3.066-0.013 0.053-0.024 0.107-0.036 0.161 3.148 2.564 4.26 6.488 5.939 10.02 0.028 0.058-0.055 0.112-0.085 0.053-1.718-3.343-3.136-6.906-5.992-9.469-0.334 1.471-0.654 2.943-0.971 4.414 2.675 2.696 4.373 5.788 5.403 9.475 0.018 0.061-0.073 0.095-0.095 0.033-1.204-3.519-3.127-6.113-5.445-8.877-0.315 1.457-0.632 2.912-0.967 4.364 1.078 1.338 2.353 2.44 3.223 3.944 0.858 1.483 1.506 3.078 1.707 4.786 0.011 0.09-0.123 0.107-0.139 0.018-0.597-3.439-2.946-5.515-4.942-8.107-0.318 1.351-0.654 2.697-1.017 4.039 2.182 2.981 4.673 5.963 4.894 9.833 3e-3 0.038-0.055 0.048-0.06 9e-3 -0.436-3.664-2.945-6.322-5.018-9.172-0.067 0.238-0.129 0.477-0.199 0.715-0.355 1.235-0.724 2.467-1.096 3.697 1.372 1.461 2.535 3.161 3.592 4.856 0.75 1.202 1.577 2.433 1.769 3.862 0.013 0.09-0.122 0.114-0.139 0.024-0.523-2.987-3.363-5.894-5.383-8.208-0.377 1.242-0.756 2.484-1.132 3.726 2.028 3.024 4.911 5.516 5.216 9.406 8e-3 0.115-0.165 0.137-0.18 0.022-0.49-3.652-3.256-5.995-5.212-8.848-0.232 0.77-0.463 1.541-0.69 2.312 2.528 2.541 4.886 6.747 5.21 10.25 0.019 0.194-0.267 0.233-0.297 0.04-0.515-3.182-2.586-7.345-5.089-9.676-0.365 1.252-0.719 2.506-1.053 3.767 6e-3 0.042 5e-3 0.083-3e-3 0.125 1.182 1.04 2.086 2.637 2.929 3.916 1.015 1.543 1.9 3.198 2.114 5.056 0.023 0.205-0.305 0.232-0.32 0.025-0.23-3.049-2.691-6.166-4.923-8.328-0.119 0.461-0.24 0.922-0.354 1.385-0.169 0.692-0.335 1.387-0.5 2.081 0.74 1.26 1.955 2.264 2.679 3.568 0.63 1.134 1.073 2.353 1.495 3.576 0.042 0.121-0.138 0.195-0.186 0.074-0.621-1.553-1.293-3.076-2.302-4.422-0.565-0.752-1.315-1.38-1.837-2.16-0.27 1.135-0.54 2.27-0.82 3.402 0.011 8e-3 0.022 0.018 0.035 0.026 0.013 4e-3 0.028 7e-3 0.042 0.011 0.083 0.021 0.13 0.075 0.153 0.139 1.308 1.063 1.848 2.867 2.337 4.418 0.012 0.037-0.041 0.056-0.056 0.02-0.595-1.452-1.285-3.074-2.491-4.14-6e-3 -1e-3 -0.011 0-0.017-1e-3 -0.039-0.012-0.077-0.023-0.115-0.033-0.23 0.919-0.47 1.837-0.723 2.751 0.097 0.069 0.148 0.204 0.073 0.299 0.54 0.893 0.941 1.897 1.305 2.868 0.027 0.072-0.079 0.116-0.112 0.045-0.417-0.924-0.874-1.739-1.455-2.539-0.539 1.881-1.143 3.742-1.874 5.566-0.067 0.169-0.317 0.054-0.257-0.114 0.642-1.785 1.183-3.595 1.674-5.419-1.317 0.691-2.741 1.372-3.811 2.367-0.056 0.052-0.145-0.021-0.091-0.079 0.598-0.649 1.331-1.119 2.064-1.603 0.656-0.432 1.284-1 2.009-1.317 0.258-0.983 0.5-1.969 0.733-2.957-1.067-0.303-2.066-0.539-3.221-0.201-1.415 0.413-2.544 1.344-3.261 2.626-0.089 0.157-0.346 0.037-0.255-0.12 0.689-1.182 1.721-2.116 2.994-2.643 1.34-0.555 2.527-0.378 3.839-0.069 0.267-1.143 0.527-2.288 0.782-3.435-1.155 0.121-2.323 0.438-3.438 0.708-1.8 0.435-3.161 1.334-4.85 1.981-0.169 0.065-0.276-0.192-0.107-0.259 1.597-0.639 2.891-1.532 4.581-1.987 1.217-0.326 2.61-0.798 3.906-0.855 0.013-0.061 0.027-0.121 0.04-0.182-6e-3 -0.015-0.014-0.029-0.02-0.046-0.044-0.115 7e-3 -0.2 0.085-0.243 0.244-1.098 0.489-2.196 0.744-3.292 0.015-0.068 0.034-0.137 0.05-0.205-2.818-0.019-7.148 0.213-8.709 2.764-0.15 0.243-0.498-6e-3 -0.318-0.242 2.107-2.729 6.087-2.519 9.169-3.107 0.299-1.235 0.616-2.464 0.953-3.688-1.74-0.182-3.464-0.208-5.189 0.208-1.569 0.377-3.701 0.721-4.874 1.892-0.036 0.037-0.089-0.022-0.054-0.059 1.131-1.181 3.033-1.468 4.537-1.933 1.908-0.59 3.761-0.981 5.713-0.663 0.01-0.056 0.031-0.109 0.067-0.154 0.216-0.775 0.437-1.548 0.663-2.321-2.922-1.095-7.866-0.791-10.3 0.671-0.011 7e-3 -0.02-0.011-9e-3 -0.017 1.74-1.17 3.67-1.43 5.73-1.476 1.539-0.034 3.23-0.134 4.696 0.42 0.418-1.429 0.845-2.856 1.266-4.283-1.435-0.115-2.834-0.499-4.27-0.578-2.136-0.118-4.112 0.537-5.913 1.634-0.11 0.067-0.232-0.088-0.122-0.16 3.398-2.195 6.631-1.798 10.46-1.428 0.345-1.172 0.684-2.346 1.011-3.523-2.933-0.738-7.181-0.716-9.632 0.989-0.181 0.125-0.387-0.145-0.207-0.272 1.559-1.098 3.483-1.356 5.351-1.415 1.346-0.043 3.272-0.257 4.614 0.25 0.011-0.038 0.023-0.077 0.034-0.115 0.465-1.698 0.883-3.408 1.273-5.123-3.36-0.645-6.343 0.678-9.5 1.747-0.22 0.074-0.354-0.258-0.134-0.336 3.248-1.156 6.276-2.545 9.748-1.914 0.314-1.399 0.608-2.802 0.889-4.207-2.896-0.476-6.278 0.161-8.908 1.478-0.187 0.094-0.3-0.204-0.119-0.299 2.777-1.464 6.056-2.018 9.136-1.724 0.299-1.51 0.584-3.023 0.866-4.536-2.82-0.825-5.615-0.121-8.206 1.208-0.06 0.031-0.115-0.072-0.055-0.106 2.373-1.333 5.629-2.633 8.363-1.655 0.09-0.484 0.179-0.966 0.269-1.449 0.053-0.291 0.106-0.588 0.158-0.887-2.257-0.34-4.431-0.486-6.692 0.09-0.063 0.016-0.083-0.079-0.021-0.098 2.209-0.677 4.513-0.754 6.79-0.439 0.156-0.914 0.312-1.858 0.477-2.815-0.599 1e-3 -1.193 0.029-1.806-0.059-1.125-0.165-2.056 0.164-3.156 0.28-0.101 0.011-0.138-0.142-0.035-0.157 0.984-0.141 1.809-0.528 2.822-0.452 0.749 0.057 1.492 0.031 2.235 0.044 0.665-3.793 1.533-7.75 3.475-10.78 0.43-0.673 1.723-0.303 1.553 0.548-0.52 2.612-1.716 5.106-2.565 7.628" style="fill:#747ded"/></g></g></g><g id="g1354"><g id="g1356"><g id="g1362"><g id="g1364"><path id="path1372" d="m349.8 179c0.524-3.979 1.162-7.941 1.718-11.92 0.515-3.678 0.305-7.942 1.164-11.5 1.084-4.49 3.711-12.16 7.352-15.17 2.784-2.303 6.843-3.903 10.22-2.277 12.53 6.034 7.614 22.89 7.149 33.4-0.248 5.596-0.877 11.27-0.871 16.87 5e-3 3.784 0.274 7.845-1.671 11.3-1.099 1.953-2.419 3.865-3.798 5.645-3.023 3.907-6.173 7.228-8.28 11.56-10.55-10.06-14.88-23.57-12.98-37.91" style="fill:url(#linearGradient1370)"/></g></g></g></g><g id="g1374"><g id="g1376" clip-path="url(#clipPath1380)"><g id="g1382" transform="translate(368.1 137.3)"><path id="path1384" d="m0 0c-0.118 0.861-0.227 1.726-0.328 2.591 1.579 0.402 2.996 1.715 4.147 2.737 1.998 1.773 3.43 3.951 4.775 6.235 0.071 0.122-0.131 0.238-0.212 0.125-1.419-1.967-2.916-3.905-4.807-5.446-1.054-0.858-2.571-2.21-4-2.759-0.114 1.036-0.213 2.072-0.299 3.11 1.593 0.616 2.827 2.077 4.01 3.255 2.011 2.002 3.588 4.333 5.254 6.615 0.02 0.026-0.019 0.056-0.039 0.031-2.635-3.159-5.387-7.403-9.283-9.165-0.1 1.302-0.185 2.605-0.236 3.907-3e-3 0.069-4e-3 0.136-6e-3 0.204 4.421 2.389 6.68 6.902 9.541 10.81 0.046 0.063-0.042 0.148-0.092 0.084-2.863-3.666-5.412-7.669-9.476-10.12-0.065 1.865-0.114 3.729-0.159 5.592 3.876 2.656 6.656 6.023 8.762 10.27 0.036 0.072-0.067 0.133-0.108 0.063-2.278-4-5.216-6.708-8.674-9.53-0.045 1.843-0.094 3.686-0.165 5.529 1.62 1.376 3.424 2.421 4.831 4.048 1.386 1.604 2.543 3.393 3.183 5.423 0.034 0.106-0.126 0.159-0.165 0.054-1.522-4.042-4.858-6.023-7.886-8.712-0.072 1.715-0.169 3.431-0.3 5.146 3.342 3.119 7.061 6.167 8.226 10.82 0.012 0.046-0.056 0.071-0.07 0.025-1.38-4.354-5.045-7.004-8.226-9.99-0.025 0.306-0.046 0.611-0.074 0.916-0.147 1.584-0.311 3.167-0.478 4.749 2.006 1.458 3.814 3.256 5.492 5.072 1.19 1.287 2.48 2.592 3.045 4.285 0.035 0.106-0.123 0.167-0.162 0.061-1.33-3.509-5.455-6.387-8.447-8.731-0.171 1.598-0.344 3.194-0.513 4.791 3.166 3.207 7.248 5.569 8.518 10.23 0.037 0.139-0.168 0.206-0.214 0.068-1.441-4.324-5.345-6.533-8.385-9.549-0.103 0.99-0.205 1.98-0.301 2.972 3.661 2.503 7.501 7.069 8.708 11.26 0.066 0.23-0.272 0.343-0.355 0.118-1.361-3.751-4.844-8.332-8.427-10.59-0.152 1.606-0.293 3.214-0.407 4.824 0.018 0.05 0.026 0.1 0.026 0.152 1.677 0.992 3.146 2.722 4.466 4.082 1.593 1.641 3.051 3.449 3.742 5.658 0.076 0.244-0.318 0.352-0.384 0.105-0.985-3.653-4.697-6.873-7.912-8.986-0.038 0.589-0.078 1.176-0.11 1.766-0.046 0.881-0.087 1.764-0.127 2.646 1.191 1.36 2.902 2.3 4.084 3.718 1.028 1.232 1.849 2.611 2.646 4 0.079 0.137-0.123 0.268-0.21 0.133-1.114-1.743-2.284-3.44-3.822-4.842-0.861-0.784-1.918-1.374-2.734-2.201-0.064 1.443-0.131 2.885-0.21 4.326 0.017 7e-3 0.033 0.016 0.049 0.024 0.019 1e-3 0.036 2e-3 0.055 3e-3 0.104 6e-3 0.175 0.061 0.218 0.133 1.836 0.99 2.91 3.058 3.864 4.83 0.022 0.042-0.037 0.079-0.064 0.038-1.06-1.628-2.273-3.44-3.987-4.457-8e-3 0-0.013 3e-3 -0.021 2e-3 -0.05-4e-3 -0.097-9e-3 -0.147-0.013-0.067 1.172-0.146 2.343-0.243 3.512 0.136 0.061 0.228 0.214 0.159 0.347 0.863 0.96 1.584 2.088 2.25 3.183 0.05 0.082-0.069 0.161-0.125 0.082-0.721-1.028-1.466-1.912-2.356-2.749-0.22 2.41-0.525 4.813-0.991 7.199-0.043 0.221-0.373 0.14-0.337-0.079 0.367-2.318 0.604-4.644 0.779-6.975-1.441 1.145-3.014 2.302-4.086 3.76-0.056 0.076-0.18 8e-3 -0.128-0.075 0.578-0.927 1.359-1.669 2.138-2.427 0.697-0.677 1.329-1.512 2.138-2.066 0.085-1.254 0.152-2.509 0.207-3.765-1.369-0.121-2.637-0.176-3.964 0.501-1.624 0.83-2.781 2.224-3.356 3.949-0.071 0.211-0.412 0.124-0.337-0.087 0.563-1.597 1.602-2.971 3.028-3.907 1.5-0.984 2.984-1.044 4.651-0.972 0.059-1.451 0.11-2.903 0.155-4.357-1.376 0.414-2.723 1.071-4.015 1.657-2.088 0.946-3.536 2.352-5.438 3.531-0.19 0.118-0.38-0.17-0.19-0.291 1.793-1.146 3.159-2.531 5.109-3.475 1.403-0.679 2.988-1.575 4.551-1.945 2e-3 -0.076 4e-3 -0.153 7e-3 -0.23-0.012-0.017-0.026-0.033-0.037-0.05-0.08-0.13-0.038-0.246 0.048-0.316 0.042-1.391 0.086-2.784 0.142-4.175 4e-3 -0.086 0.01-0.173 0.014-0.26-3.43 0.63-8.641 1.914-9.949 5.377-0.125 0.329-0.607 0.107-0.441-0.22 1.929-3.807 6.816-4.474 10.43-5.902 0.076-1.57 0.177-3.138 0.304-4.705-2.158 0.182-4.259 0.55-6.26 1.455-1.822 0.822-4.333 1.734-5.488 3.429-0.036 0.054-0.113-7e-3 -0.079-0.059 1.102-1.698 3.348-2.488 5.068-3.4 2.183-1.159 4.345-2.064 6.792-2.13-1e-3 -0.07 0.012-0.139 0.045-0.202 0.083-0.992 0.173-1.983 0.268-2.974-3.805-0.657-9.744 0.858-12.36 3.2-0.012 0.011-0.027-8e-3 -0.016-0.02 1.846-1.825 4.131-2.588 6.624-3.12 1.864-0.397 3.898-0.911 5.807-0.576 0.178-1.834 0.365-3.668 0.549-5.502-1.773 0.194-3.561 0.051-5.326 0.287-2.624 0.352-4.875 1.605-6.811 3.357-0.116 0.105-0.301-0.056-0.185-0.167 3.623-3.455 7.645-3.722 12.39-4.16 0.149-1.504 0.289-3.01 0.415-4.517-3.737-0.218-8.897 0.793-11.48 3.433-0.19 0.194-0.504-0.086-0.315-0.283 1.642-1.695 3.921-2.454 6.179-2.959 1.626-0.364 3.917-1.069 5.667-0.764 4e-3 -0.049 9e-3 -0.099 0.014-0.149 0.172-2.171 0.285-4.346 0.362-6.522-4.234-5e-3 -7.554 2.295-11.15 4.324-0.249 0.141-0.49-0.232-0.24-0.378 3.682-2.156 7.04-4.546 11.41-4.584 0.057-1.772 0.09-3.546 0.106-5.32-3.63 0.092-7.596 1.649-10.49 3.86-0.206 0.156-0.412-0.179-0.214-0.336 3.038-2.423 6.896-3.856 10.71-4.212 0.012-1.905 9e-3 -3.809 1e-3 -5.714-3.619-0.349-6.853 1.154-9.696 3.368-0.066 0.051-0.157-0.061-0.092-0.116 2.576-2.171 6.234-4.505 9.785-3.949-3e-3 -0.607-6e-3 -1.216-0.01-1.823-2e-3 -0.367-7e-3 -0.739-0.013-1.115-2.822 0.109-5.499 0.436-8.114 1.659-0.073 0.034-0.118-0.077-0.049-0.114 2.529-1.334 5.313-1.961 8.153-2.107-0.021-1.147-0.05-2.33-0.072-3.531-0.727 0.138-1.443 0.311-2.209 0.345-1.406 0.061-2.461 0.675-3.771 1.072-0.12 0.036-0.2-0.141-0.078-0.183 1.163-0.399 2.076-1.06 3.324-1.202 0.925-0.104 1.822-0.309 2.728-0.464-0.07-4.766 0.071-9.777 1.728-13.92 0.367-0.918 2.024-0.766 2.016 0.307-0.029 3.296-0.907 6.604-1.354 9.868" style="fill:#747ded"/></g><g id="g1386" transform="translate(384.3 133.3)"><path id="path1388" d="m0 0-0.464-8.543-0.726-13.3-1.19-21.86h-29.59l-1.189 21.86-0.727 13.3-0.464 8.543z" style="fill:#95a8b5"/></g><g id="g1390" transform="translate(383.9 124.8)"><path id="path1392" d="m0 0-0.096-1.713-0.094-1.773-0.537-9.817h-31.97l-0.536 9.817-0.095 1.773-0.096 1.713z" style="fill:#a5b7c6"/></g><g id="g1394" transform="translate(383.8 123.1)"><path id="path1396" d="m0 0-0.095-1.773h-33.04l-0.094 1.773z" style="fill:#95a8b5"/></g></g></g></g></svg>
