<svg width="117.5" height="47" version="1.1" viewBox="0 0 31.089 12.435" xmlns="http://www.w3.org/2000/svg" xmlns:xlink="http://www.w3.org/1999/xlink">
 <g transform="matrix(.5204 0 0 .5204 23.34 -.21239)" style="fill:#dee3db;shape-inside:url(#rect5204);white-space:pre" aria-label="شا">
  <g transform="translate(-31.729 .26498)" style="fill:#f1f5f8">
   <path d="m23.972 4.0437c0.24711-0.020542-0.14469 0.65399-0.4957 1.2206-0.34113 0.56581-0.62042 0.85775-0.83788 0.87583l-0.17912-0.17919-0.07903-0.2323c-0.16883-0.11535-0.34716-0.16522-0.53496-0.14961-1.0379 0.086277-2.1707 1.4843-3.3986 4.194-0.04428-1.0115 0.45886-2.3223 1.5094-3.9324 1.0942-1.6834 2.1059-2.5637 3.035-2.641 0.60296-0.050123 0.36801 0.89502 0.98085 0.84408zm0.51041 5.4217c0.09778 1.1763-0.01654 2.3751-0.34298 3.5966-0.38248 1.3854-0.9531 2.4231-1.7119 3.1132-0.39792 0.36152-0.74144 0.53937-1.0306 0.53354-0.9039 1.4586-1.8501 2.229-2.8385 2.3111-0.14675 0.62928-0.86065 1.4401-2.1417 2.4324l0.50437-1.9548c1.1872-1.2831 1.885-3.066 2.0754-3.6491 0.06842-0.25451 0.18134-0.63215 0.33877-1.1329l0.20754 0.1619 0.05558 0.12974-0.09038 0.88834c0.0074 0.08895 0.05228 0.14992 0.13464 0.18289 0.35584-0.02958 0.73851-0.33509 1.148-0.91654 0.35512-0.51721 0.5702-0.98297 0.64524-1.3973 0.04207-0.33194 0.11054-0.82532 0.2054-1.4801l0.19525-0.16552 0.06793 0.09886c0.07738 0.21253 0.1514 0.74383 0.22207 1.5939l0.09143 0.02226c0.61702-0.35983 1.0726-0.9252 1.3669-1.6961 0.18048-0.46288 0.32106-1.1066 0.42172-1.9311 0.08415-0.66388 0.17319-1.0296 0.2671-1.0971 0.12272 0.039557 0.1923 0.15819 0.20874 0.35588z" style="fill:#f1f5f8;stroke-width:1.0882"/>
   <path d="m21.788 1.3769c0.06971-0.0058-0.04082 0.18449-0.13984 0.34434-0.09622 0.15962-0.17502 0.24197-0.23636 0.24707l-0.05053-0.050546-0.0223-0.065535c-0.04763-0.032543-0.23412 0.23004-0.28711 0.23445-0.29278 0.024338-0.47185 0.51316-0.82255 0.90647-0.01251-0.28534 0.12945-0.65513 0.4258-1.1093 0.30868-0.47489 0.59408-0.72323 0.85619-0.74502 0.17009-0.014139 0.10382 0.25249 0.2767 0.23811z" style="fill:#f1f5f8;shape-inside:url(#rect5204);stroke-width:.30699;white-space:pre"/>
   <path d="m8.6927 5.6331c0.37088-0.12899 0.8436-0.07329 1.1689 0.14671 0.33349 0.22558 0.45648 0.67503 0.58567 1.0564 0.20532 0.60604 0.23993 1.2604 0.28133 1.8989 0.06208 0.95734 0.03742 1.9223-0.05059 2.8776-0.06395 0.69424-0.2411 1.3735-0.34589 2.0627-0.11574 0.76125-0.2394 1.5223-0.31232 2.2888-0.07263 0.76349-0.2456 1.5402-0.1243 2.2974 0.11478 0.7166 0.40551 1.4135 0.79075 2.0285 0.32941 0.52591 0.70532 1.0984 1.2655 1.3654 0.55199 0.26305 1.2346 0.25863 1.8304 0.12114 0.74142-0.17109 1.5099-0.62974 1.9813-1.1336 0.41447-0.40128 1.0236-0.60353 1.1674-1.1923 0.06305-0.06256 0.10228 0.85008 0.0083 1.116-0.15278 0.51354-0.25524 1.1389-0.78241 1.4357-0.20297 0.05457-0.48298 0.30503-0.74653 0.41101-0.69954 0.2813-1.4346 0.51267-2.1851 0.58458-0.59377 0.05689-1.2331 0.10027-1.785-0.12584-0.50744-0.20787-0.90213-0.6454-1.2506-1.0688-0.31682-0.38497-0.55323-0.83844-0.73482-1.3028-0.23518-0.60134-0.34898-1.2467-0.44548-1.8852-0.08133-0.53809-0.11316-1.0846-0.11086-1.6288 0.0034-0.79783 0.07101-1.5966 0.18271-2.3865 0.07334-0.51862 0.2345-1.0217 0.31915-1.5386 0.11133-0.67981 0.1848-1.3657 0.24763-2.0517 0.05694-0.62179 0.10482-1.2452 0.11706-1.8695 0.01302-0.66214 0.1885-1.367-0.0463-1.9863-0.18532-0.48875-0.49414-1.127-1.012-1.1978-0.39893-0.054588-0.94783 0.27996-0.9988 0.67938-0.01731 0.13565 0.54246-0.84872 0.98496-1.0026z" style="fill:#f1f5f8;stroke-width:0"/>
   <path d="m25.869 3.8358c0.37088-0.12899 0.8436-0.07329 1.1689 0.14672 0.33349 0.22558 0.45648 0.67503 0.58567 1.0564 0.20532 0.60604 0.23993 1.2604 0.28133 1.8989 0.06208 0.95735 0.03742 1.9223-0.05059 2.8776-0.06395 0.69424-0.2411 1.3735-0.34589 2.0627-0.11574 0.76125-0.2394 1.5223-0.31232 2.2888-0.07263 0.76349-0.2456 1.5402-0.1243 2.2974 0.11478 0.7166 0.40551 1.4135 0.79075 2.0285-1.0213 4.7966-0.25098 1.7474-0.49669 1.5133-0.31682-0.38497-0.55323-0.83844-0.73482-1.3028-0.23518-0.60134-0.34898-1.2467-0.44548-1.8852-0.08133-0.53809-0.11316-1.0846-0.11086-1.6288 0.0034-0.79783 0.07101-1.5966 0.18271-2.3865 0.07334-0.51862 0.2345-1.0217 0.31915-1.5386 0.11133-0.67981 0.1848-1.3657 0.24763-2.0517 0.05694-0.62179 0.10482-1.2452 0.11706-1.8695 0.01298-0.66214 0.18846-1.367-0.04633-1.9863-0.18532-0.48875-0.49414-1.127-1.012-1.1978-0.39893-0.054588-0.94783 0.27996-0.9988 0.67938-0.01731 0.13565 0.54246-0.84872 0.98496-1.0026z" style="fill:#f1f5f8;shape-inside:url(#rect5204);stroke-width:0;white-space:pre"/>
   <g transform="matrix(2.032 .11891 -.11891 2.032 -96.125 -34.692)" style="fill:#f1f5f8;shape-inside:url(#rect16764)" aria-label="ن">
    <path d="m51.956 17.204c0.01042 0.11198 0.03256 0.23828 0.06641 0.37891s-0.10313 0.66988-0.06146 0.82874c0.04427 0.15886 0.08985 0.32292 0.13672 0.49219 0.04687 0.17188 0.08984 0.34375 0.12891 0.51562 0.03906 0.17188 0.07031 0.34245 0.09375 0.51172 0.02604 0.16667 0.03906 0.32422 0.03906 0.47266 0 0.2474-0.01302 0.5013-0.03906 0.76172-0.02344 0.25781-0.05729 0.50911-0.10156 0.75391-0.04948 0.39062-0.13021 0.75-0.24219 1.0781s-0.2487 0.625-0.41016 0.89062c-0.15885 0.26562-0.33854 0.4987-0.53906 0.69922s-0.41276 0.36849-0.63672 0.50391c-0.22396 0.13542-0.45573 0.23698-0.69531 0.30469-0.23958 0.06771-0.47917 0.10156-0.71875 0.10156-0.3099 0-0.58724-0.0625-0.83203-0.1875-0.24219-0.1224-0.44792-0.29036-0.61719-0.50391-0.16667-0.21354-0.29557-0.46484-0.38672-0.75391-0.08854-0.28646-0.13281-0.59375-0.13281-0.92188 0-0.22396 0.01562-0.45182 0.04687-0.68359 0.03125-0.22917 0.08203-0.46094 0.15234-0.69531 0.07031-0.23438 0.16146-0.47005 0.27344-0.70703s0.2487-0.47396 0.41016-0.71094c0.11719-0.16927 0.22917-0.32031 0.33594-0.45312 0.10938-0.13542 0.21875-0.24479 0.32812-0.32812 0.01563 0 0.02995 0.0026 0.04297 0.0078s0.01953 0.01562 0.01953 0.03125c0 0.02083-0.0039 0.04557-0.01172 0.07422-0.0078 0.02865-0.01953 0.05078-0.03516 0.06641-0.04948 0.07813-0.11068 0.17188-0.18359 0.28125-0.07552 0.11198-0.15365 0.23698-0.23438 0.375-0.08073 0.13542-0.16276 0.28385-0.24609 0.44531-0.08073 0.15886-0.15365 0.32813-0.21875 0.50781-0.06511 0.17969-0.11849 0.36719-0.16016 0.5625-0.03906 0.19531-0.05859 0.39583-0.05859 0.60156 0 0.27083 0.04037 0.51432 0.12109 0.73047 0.08073 0.21615 0.19141 0.39974 0.33203 0.55078 0.14062 0.15104 0.30338 0.26693 0.48828 0.34766 0.1875 0.08073 0.38672 0.12109 0.59766 0.12109 0.28906 0 0.5625-0.04948 0.82031-0.14844 0.25781-0.09635 0.49609-0.22396 0.71484-0.38281 0.21875-0.15885 0.41406-0.34115 0.58594-0.54688 0.17448-0.20312 0.32292-0.41146 0.44531-0.625 0.1224-0.21354 0.21614-0.42188 0.28125-0.625 0.06511-0.20573 0.09766-0.39062 0.09766-0.55469 0-0.10417-0.01562-0.22917-0.04687-0.375s-0.07031-0.29948-0.11719-0.46094c-0.04427-0.16406-0.09375-0.33073-0.14844-0.5-0.05469-0.16927-0.10547-0.33073-0.15234-0.48438-0.04427-0.15364-0.08203-0.29297-0.11328-0.41797-0.03125-0.125-0.04687-0.22526-0.04687-0.30078 0-0.03646 0.0065-0.08854 0.01953-0.15625 0.01563-0.06771 0.03906-0.15234 0.07031-0.25391s0.07291-0.22135 0.125-0.35938c0.05469-0.14062 0.29584-0.6829 0.37396-0.8678z" style="fill:#f1f5f8"/>
   </g>
   <path d="m2.5413 8.5293c-0.30765 0.09099-0.55285 0.35002-0.638 0.65812-0.10854 0.37343-0.06334 0.77302 0.03244 1.1442-4e-3 0.08067 0.05103 0.05239 0.09942 0.03514 0.13916-0.04396-0.15345 0.07855-0.01428 0.03459-0.0761-0.28992-0.052364-0.66016 0.08315-0.94638 0.050133-0.10588 0.14276-0.20164 0.25133-0.24568 0.14607-0.059248 0.35237-0.09917 0.4729 0.0016 0.2008 0.16555 0.37019 0.46899 0.42806 0.71339-1.62e-4 0.07032 0.1245 0.24367 0.19322 0.21818l0.54101-0.36997c-0.05496-0.35644-0.18115-0.71466-0.42338-0.98784-0.18449-0.21049-0.46674-0.32565-0.74555-0.30603-0.0951 0.0049-0.18938 0.02263-0.28031 0.05072z" style="-inkscape-stroke:none;color:#000000;fill:#f1f5f8;stroke-width:1.0294"/>
   <g transform="matrix(1.7992 0 0 1.7992 -237.38 -1.7753)" style="fill:#f1f5f8;shape-inside:url(#rect24740)" aria-label="کا">
    <path d="m146.64 9.1836c0.35541 0.3758 0.34234 0.9241 0.51265 1.3857 0.0252 0.18556 0.13095 0.37401 0.17378 0.08399 0.15056-0.31711 0.0484-0.77645 0.40894-0.95166 0.50215-0.37853 1.774-0.66174 2.343-0.27341 0.48652 0.33399 0.2742 1.0169 0.16551 1.5455-0.0566 0.68671-0.47272 1.4589-1.0617 1.8965-0.44076 0.35586-1.1216 0.30755-1.5147-0.0979-0.63288-0.6138-0.84734-1.5072-1.0712-2.3293-0.11974-0.40974-0.12981-0.84998-3e-3 -1.2594l0.0469 5e-7zm0.67188 1.7969c0.18228 0.50786 0.57667 1.0326 1.1614 1.0588 0.55142 0.02885 1.2642-0.403 1.3892-0.93579 0.0832-0.49284-0.571-0.86987-1.0284-0.86438-0.57259 0.0064-1.1557 0.3058-1.5222 0.74134zm-0.0156-1.5469c0.089-0.32279 0.0789-0.67564 0.19045-0.98535 0.72529-0.63976 1.4348-1.3036 2.071-2.0349 0.70987-0.80562 2.3309-2.7535 2.8567-3.6899 0.0472 0.29506-0.0578 0.67414-0.13804 0.98871-0.23099 0.65447-1.6691 2.2747-2.0565 2.8423-0.77432 1.0356-1.6379 2.0345-2.7072 2.7753-0.0635 0.011167-0.15425 0.14949-0.21635 0.10376z" style="fill:#f1f5f8"/>
   </g>
  </g>
 </g>
</svg>
